<svg width="49" height="48" viewBox="0 0 49 48" fill="none" xmlns="http://www.w3.org/2000/svg">
<rect x="0.5" width="48" height="48" rx="16" fill="#F30000"/>
<path d="M31.5 18.76V14H18.5V18.76C18.4996 19.2854 18.6027 19.8058 18.8035 20.2914C19.0042 20.777 19.2987 21.2182 19.67 21.59L22.09 24L19.67 26.41C18.9256 27.1644 18.5056 28.1801 18.5 29.24V34H31.5V29.24C31.4944 28.1801 31.0745 27.1644 30.33 26.41L27.91 24L30.33 21.59C30.7013 21.2182 30.9958 20.777 31.1965 20.2914C31.3973 19.8058 31.5004 19.2854 31.5 18.76ZM29.5 18.76C29.4978 19.2896 29.2856 19.7966 28.91 20.17L26.15 22.94C25.8691 23.2213 25.7113 23.6025 25.7113 24C25.7113 24.3975 25.8691 24.7787 26.15 25.06L28.91 27.83C29.2856 28.2034 29.4978 28.7104 29.5 29.24V32H20.5V29.24C20.5022 28.7104 20.7144 28.2034 21.09 27.83L23.85 25.06C24.1309 24.7787 24.2887 24.3975 24.2887 24C24.2887 23.6025 24.1309 23.2213 23.85 22.94L21.09 20.17C20.7144 19.7966 20.5022 19.2896 20.5 18.76V16H29.5V18.76Z" fill="white"/>
</svg>
