<svg width="49" height="48" viewBox="0 0 49 48" fill="none" xmlns="http://www.w3.org/2000/svg">
<rect x="0.75" width="48" height="48" rx="16" fill="#F30000"/>
<g clip-path="url(#clip0_21_673)">
<path d="M27 22.125H30" stroke="white" stroke-width="2" stroke-linecap="round" stroke-linejoin="round"/>
<path d="M19.5 22.125H22.5" stroke="white" stroke-width="2" stroke-linecap="round" stroke-linejoin="round"/>
<path d="M21 20.625V23.625" stroke="white" stroke-width="2" stroke-linecap="round" stroke-linejoin="round"/>
<path d="M28.875 17.2217L20.625 17.2498C19.4792 17.252 18.3706 17.657 17.4931 18.3939C16.6156 19.1308 16.0252 20.1528 15.825 21.2811L14.2875 29.1654C14.1888 29.716 14.2686 30.2837 14.5151 30.7858C14.7617 31.2879 15.1622 31.6981 15.6583 31.9566C16.1543 32.2151 16.72 32.3084 17.2728 32.2228C17.8256 32.1373 18.3366 31.8774 18.7313 31.4811L22.7813 26.9998L28.875 26.9717C30.168 26.9717 31.4079 26.4581 32.3222 25.5438C33.2364 24.6296 33.75 23.3896 33.75 22.0967C33.75 20.8037 33.2364 19.5638 32.3222 18.6495C31.4079 17.7353 30.168 17.2217 28.875 17.2217Z" stroke="white" stroke-width="2" stroke-linecap="round" stroke-linejoin="round"/>
<path d="M33.675 21.2529L35.2125 29.1654C35.3112 29.716 35.2315 30.2837 34.9849 30.7858C34.7383 31.2879 34.3378 31.6981 33.8418 31.9566C33.3457 32.2151 32.78 32.3084 32.2273 32.2228C31.6745 32.1373 31.1635 31.8774 30.7687 31.4811L26.7188 26.9811" stroke="white" stroke-width="2" stroke-linecap="round" stroke-linejoin="round"/>
</g>
<defs>
<clipPath id="clip0_21_673">
<rect width="24" height="24" fill="white" transform="translate(12.75 12)"/>
</clipPath>
</defs>
</svg>
