<svg width="48" height="48" viewBox="0 0 48 48" fill="none" xmlns="http://www.w3.org/2000/svg">
<rect width="48" height="48" rx="16" fill="#F30000"/>
<path d="M28.3394 21.3224C28.7434 20.9459 28.7657 20.3131 28.3891 19.9091C28.0126 19.5051 27.3798 19.4828 26.9758 19.8594L24.0497 22.5866L21.3224 19.6605C20.9459 19.2565 20.3131 19.2342 19.9091 19.6108C19.5051 19.9873 19.4828 20.6201 19.8594 21.0241L22.5866 23.9502L19.6605 26.6775C19.2565 27.054 19.2342 27.6868 19.6108 28.0908C19.9873 28.4948 20.6201 28.5171 21.0241 28.1405L23.9502 25.4133L26.6775 28.3394C27.054 28.7434 27.6868 28.7657 28.0908 28.3891C28.4948 28.0126 28.5171 27.3798 28.1405 26.9758L25.4133 24.0497L28.3394 21.3224Z" fill="white"/>
<path fill-rule="evenodd" clip-rule="evenodd" d="M13 24C13 17.9249 17.9249 13 24 13C30.0751 13 35 17.9249 35 24C35 30.0751 30.0751 35 24 35C17.9249 35 13 30.0751 13 24ZM24 33C19.0294 33 15 28.9706 15 24C15 19.0294 19.0294 15 24 15C28.9706 15 33 19.0294 33 24C33 28.9706 28.9706 33 24 33Z" fill="white"/>
</svg>
