<svg width="48" height="48" viewBox="0 0 48 48" fill="none" xmlns="http://www.w3.org/2000/svg">
<rect width="48" height="48" rx="16" fill="#252525"/>
<path d="M21.75 22.5H14.25C13.8358 22.5 13.5 22.1646 13.5 21.75V14.25C13.5 13.8354 13.8358 13.5 14.25 13.5H21.75C22.1642 13.5 22.5 13.8354 22.5 14.25V21.75C22.5 22.1646 22.1642 22.5 21.75 22.5ZM15 21H21V15H15V21Z" fill="#676767"/>
<path d="M16.5948 34.5C16.403 34.5 16.2111 34.4268 16.0646 34.2803L13.7197 31.9358C13.4268 31.6428 13.4268 31.1682 13.7197 30.8752C14.0127 30.5823 14.4873 30.5823 14.7803 30.8752L16.5948 32.6895L21.2197 28.0642C21.5127 27.7712 21.9873 27.7712 22.2803 28.0642C22.5732 28.3572 22.5732 28.8318 22.2803 29.1248L17.1251 34.2803C16.9786 34.4268 16.7867 34.5 16.5948 34.5Z" fill="#676767"/>
<path d="M33.75 18.75H26.25C25.8358 18.75 25.5 18.4146 25.5 18C25.5 17.5854 25.8358 17.25 26.25 17.25H33.75C34.1642 17.25 34.5 17.5854 34.5 18C34.5 18.4146 34.1642 18.75 33.75 18.75Z" fill="#676767"/>
<path d="M33.75 30.75H26.25C25.8358 30.75 25.5 30.4146 25.5 30C25.5 29.5854 25.8358 29.25 26.25 29.25H33.75C34.1642 29.25 34.5 29.5854 34.5 30C34.5 30.4146 34.1642 30.75 33.75 30.75Z" fill="#676767"/>
</svg>
