<svg width="48" height="48" viewBox="0 0 48 48" fill="none" xmlns="http://www.w3.org/2000/svg">
<rect width="48" height="48" rx="16" fill="#252525"/>
<g clip-path="url(#clip0_28_1310)">
<path d="M15.516 32.484C14.3699 31.377 13.4557 30.0529 12.8268 28.5889C12.1979 27.1248 11.8668 25.5502 11.853 23.9568C11.8391 22.3635 12.1428 20.7833 12.7461 19.3085C13.3495 17.8338 14.2405 16.494 15.3673 15.3673C16.494 14.2405 17.8338 13.3495 19.3085 12.7461C20.7833 12.1428 22.3635 11.8391 23.9568 11.853C25.5502 11.8668 27.1248 12.1979 28.5889 12.8268C30.0529 13.4557 31.377 14.3699 32.484 15.516C34.6699 17.7792 35.8794 20.8105 35.8521 23.9568C35.8247 27.1032 34.5627 30.1129 32.3378 32.3378C30.1129 34.5627 27.1032 35.8247 23.9568 35.8521C20.8105 35.8794 17.7792 34.6699 15.516 32.484ZM30.792 30.792C32.5933 28.9906 33.6053 26.5475 33.6053 24C33.6053 21.4525 32.5933 19.0093 30.792 17.208C28.9906 15.4066 26.5475 14.3947 24 14.3947C21.4525 14.3947 19.0093 15.4066 17.208 17.208C15.4066 19.0093 14.3947 21.4525 14.3947 24C14.3947 26.5475 15.4066 28.9906 17.208 30.792C19.0093 32.5933 21.4525 33.6053 24 33.6053C26.5475 33.6053 28.9906 32.5933 30.792 30.792ZM20.4 19.2H22.8V28.8H20.4V19.2ZM25.2 19.2H27.6V28.8H25.2V19.2Z" fill="#676767"/>
</g>
<defs>
<clipPath id="clip0_28_1310">
<rect width="24" height="24" fill="white" transform="translate(12 12)"/>
</clipPath>
</defs>
</svg>
