<svg width="49" height="48" viewBox="0 0 49 48" fill="none" xmlns="http://www.w3.org/2000/svg">
<rect x="0.25" width="48" height="48" rx="16" fill="#F30000"/>
<g clip-path="url(#clip0_21_573)">
<path d="M13.0599 12.4048H31.8121C32.1369 12.4048 32.4006 12.6684 32.4006 12.9933V15.0949H35.4402C35.765 15.0949 36.0287 15.3582 36.0287 15.6834V25.7578C36.0287 25.9123 35.9691 26.0526 35.8719 26.1575L32.4006 30.482V35.0067C32.4006 35.3316 32.1369 35.5952 31.8121 35.5952H13.0599C12.7351 35.5952 12.4714 35.3316 12.4714 35.0067V12.9933C12.4714 12.6684 12.7351 12.4048 13.0599 12.4048ZM32.4006 16.2718V28.6069L34.8517 25.5534V16.2718H32.4006ZM23.1698 29.4803C22.8449 29.4803 22.5813 29.2166 22.5813 28.8918C22.5813 28.5669 22.8449 28.3033 23.1698 28.3033H27.2058C27.9796 28.3033 27.9796 29.4803 27.2058 29.4803H23.1698ZM17.6665 22.6317C16.8924 22.6317 16.8924 21.4547 17.6665 21.4547H27.2058C27.9796 21.4547 27.9796 22.6317 27.2058 22.6317H17.6665ZM17.6665 25.8113C16.8924 25.8113 16.8924 24.6344 17.6665 24.6344H27.2058C27.9796 24.6344 27.9796 25.8113 27.2058 25.8113H17.6665ZM18.3188 17.0877C17.5446 17.0877 17.5446 15.9107 18.3188 15.9107H26.5535C27.3274 15.9107 27.3274 17.0877 26.5535 17.0877H18.3188ZM31.2236 13.5817H13.6484V34.4182H31.2236V13.5817Z" fill="white"/>
</g>
<defs>
<clipPath id="clip0_21_573">
<rect width="24" height="24" fill="white" transform="translate(12.25 12)"/>
</clipPath>
</defs>
</svg>
