<svg width="48" height="48" viewBox="0 0 48 48" fill="none" xmlns="http://www.w3.org/2000/svg">
<rect width="48" height="48" rx="16" fill="#252525"/>
<path d="M24.2948 21.0145C23.6793 20.9537 23.06 21.0847 22.5218 21.3894C21.9835 21.6942 21.5527 22.1579 21.2881 22.717C21.0236 23.2761 20.9384 23.9033 21.0441 24.5127C21.1498 25.1221 21.4412 25.684 21.8786 26.1213C22.316 26.5587 22.8778 26.8502 23.4872 26.9559C24.0967 27.0616 24.7239 26.9763 25.283 26.7118C25.8421 26.4473 26.3057 26.0164 26.6105 25.4782C26.9152 24.94 27.0462 24.3207 26.9854 23.7052C26.9161 23.0151 26.6104 22.3703 26.12 21.8799C25.6296 21.3896 24.9848 21.0838 24.2948 21.0145ZM31.5182 24C31.5163 24.3261 31.4923 24.6517 31.4465 24.9745L33.5657 26.6367C33.658 26.7132 33.7202 26.8199 33.7412 26.9379C33.7622 27.056 33.7407 27.1776 33.6806 27.2812L31.6757 30.75C31.6148 30.8527 31.5197 30.9305 31.407 30.9699C31.2943 31.0093 31.1713 31.0076 31.0598 30.9652L28.9551 30.1177C28.839 30.0714 28.7133 30.0547 28.5892 30.0691C28.4651 30.0834 28.3465 30.1283 28.244 30.1997C27.9228 30.4209 27.5853 30.6174 27.2343 30.7875C27.124 30.8411 27.0285 30.9211 26.9564 31.0203C26.8843 31.1196 26.8378 31.2351 26.8209 31.3566L26.5054 33.6014C26.4847 33.72 26.4234 33.8276 26.3321 33.906C26.2408 33.9844 26.1251 34.0287 26.0048 34.0312H21.9951C21.8768 34.0292 21.7626 33.9869 21.6716 33.9113C21.5805 33.8357 21.5178 33.7314 21.494 33.6155L21.179 31.3739C21.1613 31.2511 21.1135 31.1345 21.0399 31.0346C20.9663 30.9346 20.8692 30.8544 20.7571 30.8011C20.4066 30.6319 20.0702 30.4349 19.7512 30.2119C19.649 30.1408 19.5308 30.0963 19.4072 30.0823C19.2835 30.0683 19.1583 30.0853 19.0429 30.1317L16.9387 30.9788C16.8272 31.0212 16.7043 31.023 16.5916 30.9837C16.4789 30.9444 16.3837 30.8666 16.3227 30.7641L14.3179 27.2953C14.2576 27.1917 14.2361 27.07 14.2571 26.952C14.2781 26.834 14.3404 26.7272 14.4327 26.6508L16.2238 25.2445C16.322 25.1666 16.3991 25.0655 16.4482 24.9502C16.4973 24.835 16.5169 24.7093 16.5051 24.5845C16.4882 24.3891 16.4779 24.1941 16.4779 23.9986C16.4779 23.8031 16.4877 23.6109 16.5051 23.4197C16.5156 23.2957 16.4951 23.1711 16.4454 23.057C16.3957 22.9429 16.3185 22.843 16.2206 22.7662L14.4304 21.36C14.3395 21.2832 14.2786 21.1768 14.2583 21.0596C14.238 20.9423 14.2596 20.8217 14.3193 20.7188L16.3242 17.25C16.385 17.1473 16.4802 17.0695 16.5929 17.0301C16.7056 16.9907 16.8285 16.9924 16.9401 17.0348L19.0448 17.8823C19.1608 17.9286 19.2866 17.9453 19.4107 17.9309C19.5348 17.9166 19.6534 17.8717 19.7559 17.8003C20.0771 17.5791 20.4146 17.3826 20.7656 17.2125C20.8759 17.1589 20.9713 17.0789 21.0434 16.9797C21.1155 16.8804 21.1621 16.7649 21.179 16.6434L21.4945 14.3986C21.5152 14.28 21.5764 14.1724 21.6677 14.094C21.7591 14.0156 21.8748 13.9713 21.9951 13.9688H26.0048C26.1231 13.9708 26.2372 14.0131 26.3283 14.0887C26.4194 14.1643 26.482 14.2686 26.5059 14.3845L26.8209 16.6261C26.8386 16.7489 26.8863 16.8655 26.9599 16.9654C27.0335 17.0654 27.1307 17.1456 27.2427 17.1989C27.5933 17.3681 27.9297 17.5651 28.2487 17.7881C28.3508 17.8592 28.469 17.9037 28.5927 17.9177C28.7163 17.9317 28.8415 17.9147 28.957 17.8683L31.0612 17.0213C31.1727 16.9788 31.2956 16.977 31.4083 17.0163C31.521 17.0556 31.6162 17.1334 31.6771 17.2359L33.682 20.7047C33.7422 20.8083 33.7638 20.93 33.7428 21.048C33.7217 21.166 33.6595 21.2728 33.5671 21.3492L31.776 22.7555C31.6775 22.8331 31.5999 22.9342 31.5504 23.0494C31.5008 23.1647 31.4809 23.2905 31.4924 23.4155C31.5079 23.6095 31.5182 23.8045 31.5182 24Z" stroke="#676767" stroke-width="2" stroke-linecap="round" stroke-linejoin="round"/>
</svg>
